<svg id="Layer_1" data-name="Layer 1" xmlns="http://www.w3.org/2000/svg" viewBox="0 0 758.88 488.67"><defs><style>.cls-1{fill:#fff;}</style></defs><title>spaceshipwhite</title><path class="cls-1" d="M120.3,323.7a38,38,0,0,1-11.5,10.1c-4.9,2.8-10,4.8-14.8,7.1s-10,4.5-15.3,6.5a71.44,71.44,0,0,1-18.1,3.1l1.6-.2a52.3,52.3,0,0,1-5.6,0,52.71,52.71,0,0,1-5.6-.4c-12.6-1.3-24.1-5.8-31.9-12.6a30.94,30.94,0,0,1-8.4-11.4A31.56,31.56,0,0,1,9,313.4V307c.1-8.3.1-10.7-.4-9.8-.9,1.7-1.1-7.6-1.3-14.1L6,229.3,5.7,207a29.82,29.82,0,0,1,1.9-12.1,31.94,31.94,0,0,1,7.7-11,42.86,42.86,0,0,1,11-7.6c17.3-8.9,42-9.4,60.8-1.1,2.2.9,7.2,3.4,8.3,4a23.59,23.59,0,0,1,3.6,2.6,101,101,0,0,1,11.4,5.7,25.17,25.17,0,0,0-3.9-1.8c13.2,6.3,20.9,16.6,20.6,27.5l-.2,9.8.6,1.2-.1,15-.2-3.3c-.5.2-.9,1.9-1.2,0-.3-1.5-.4-7.1-.5-11.1,0-4.3,0-6.2-.4-7.4-.4-.9-.2-6.7-1.7-10.4-1.8-4.4-3.2-5.6-3.8-5.9s-.7.3-1.2.2-.4.4-.6.7a22.15,22.15,0,0,1,2.4,6.8,24.13,24.13,0,0,0-6.2-10.6l.9.4a34.91,34.91,0,0,0-4.3-4.3,44.66,44.66,0,0,0-9.7-5.2L90.8,185c-3.9-1.4-2-.2,2.4,2.1l7.7,3.9a45,45,0,0,1,7,4.7c5.2,4.3,8.3,9.6,8.9,15.1.3,5.8.1,12.6.1,18.8l-.2,16-.3-25.5h-.2l-.1,8.5a99.14,99.14,0,0,1-.5,13.2,129.93,129.93,0,0,0-.4,15.6c.1,8.6.5,20.6-.4,26.7-.3,2.3-.9.4-1.3.4v24.2L110.3,297l-.2,4.9c-.3-14.4-1.7-7.3-2.2-19.1l-.5,11.5c-.4-3.8-.7-8.2-1.5-6-.5,1.7-1.2-5.4-1.9-7.8-.3-1-.6,1-.9.5a8.19,8.19,0,0,1-1-4c-.1-6.1-1.2-9-.5-18.6v-4.5l-.2-23.2.1-11.5.1-5.8a9.82,9.82,0,0,0-.3-3.4,13.71,13.71,0,0,0-5-7.8,23.28,23.28,0,0,0-4.8-3.1L82.3,195l-5.8-2.6-3-1.3a18.61,18.61,0,0,0-2.5-1,35.92,35.92,0,0,0-21.8-1.5c-5.5,1.4-10.3,4-13.3,7.4a13.26,13.26,0,0,0-3,5.4,15.67,15.67,0,0,0-.5,3v5.3l.1,8.3a412.47,412.47,0,0,1-.4,43.5c-.4,4.7-.4,13.4-.5,20.2l.3-.7a43.6,43.6,0,0,1,1.1,7.1c.2,7.2.2,14.8-.3,22.3l-.2,4.5a19.05,19.05,0,0,0,0,2.4l.1,1.6a12,12,0,0,0,2.6,6.3l-2-.7c4.4,5.8,7.8,6.8,7.5,7.4,0,.4-2.2-.2-3-.2a41.61,41.61,0,0,0,21.4,5.1,45.94,45.94,0,0,0,8.4-1.1,26.43,26.43,0,0,0,4-1.2c1.5-.6,3-1.2,4.4-1.8l20-8.7a23.13,23.13,0,0,0,7.2-6.2,20.18,20.18,0,0,0,3.5-6.4,14.7,14.7,0,0,1-.7,4.1,39.59,39.59,0,0,0,2.4-4.8c.4-.7.9-.1.7,2.3-.2,1.1.6-.1.8.2s.5,1.1-.2,3.1a20.31,20.31,0,0,1-7.8,9.4,38.8,38.8,0,0,1-4.8,3l-5.6,3c-3.2,1.8-4.7,3-2.9,2.5,2.7-.8.7.6-4.1,3.1l-4.2,2.1-4.7,2c-1.7.6-3.7,1.1-5.7,1.7-2.2.4-4.4.8-6.6,1a57,57,0,0,1-29.6-5.2c-1.7-1-3.9-1.8-4.9-2.5a25.64,25.64,0,0,1-9.5-8.9c-3.1-4.6-3.4-10-3.2-14.6,0-1.7.1-3.9.2-4.8.7-5.9.7-5.8.1-14.3l-2,12.9c-.3,1.5-.6,1.1-.9,1.6V291.7l.2-5.5-.4-68.6-.1-2.8c0,.1-.2.2-.2.3l-.2,54.8.1,16.9c0,11.1-.3,14.3-1.4,12.9l.5,15.9a29.06,29.06,0,0,0,1.9,10c6.5,15.5,29.6,23.8,49.4,21.5A69.47,69.47,0,0,0,85.1,341l16.3-7.4a38.94,38.94,0,0,0,12.6-9.1,27.09,27.09,0,0,0,6.4-12.9c.5-2.6.8-3.3,1.3-2,.7,1.9,1.3,3,1.8,4.7C121.9,321,118.2,325,120.3,323.7ZM107.5,218.6c-.2,1.7-.5,3.1-.6,5v17.2L107,251l-.1,6.1.3.8.6-37.4ZM13.7,199.8a28.66,28.66,0,0,1,5.5-9.9,42.17,42.17,0,0,1,14.6-10.8,41.35,41.35,0,0,0-11.5,7.1l-.3.2a14.35,14.35,0,0,1,2.6-2.2,30.36,30.36,0,0,1,5.5-3.5,36.76,36.76,0,0,0-10.4,7.4,24.79,24.79,0,0,0-6,11.7Zm50.2-39.6a100.51,100.51,0,0,0-19,.1c-19,2.8-35.3,11-44.6,22.6a26.53,26.53,0,0,0-3.1,4.6c-.8,2-.7,2.4.1,1.4a68,68,0,0,1,5-5.9c7.2-7.5,17.4-13.5,29.5-17.2A83.77,83.77,0,0,1,55.9,162a83.8,83.8,0,0,1,24.6,2.9,76.24,76.24,0,0,1,11.1,3.8c3.4,1.4,5.3,2.4,8,3.6l7.6,3.4,3.8,1.7a53.6,53.6,0,0,1,4.8,2.4c10.7,6,14.1,10.6,16.1,12.2a55.22,55.22,0,0,1,10,11.3c.4.6-.4-3-2-6-4.1-8.1-11.6-15.1-21.6-20.3-1.3-.7-2.6-1.3-4-1.9l-2.8-1.2-5.6-2.5L94.2,166a78.63,78.63,0,0,0-15.6-4.8c-1.9-.3-.3.1,4,1.5,2.5.8.3.4.2.6-6.1-1.9-15.2-2.9-18.9-3.1ZM2.9,294.4c0-6.3-.2-14.2,0-20.9.2-9.7-.2-16.2-.4-24l-.8-37.4c-.2-1-.6-3.3-1-4.5-.2-.6-.4.1-.6,1.3-.5,3.9-.9,11-1.5,11.9-1.1,1.8-.7,12.3-.9,19.4a52.82,52.82,0,0,0,.6,11.9c.5,2.5,1,6.4,1.5,10.8.2,1.8.3,8.4.2,10.1-.8,11.6-.2,23.3-.2,32.8l1.6-6Zm137.8-13.1c0,2.4.1,5.7.3,7.5.9,11.2,2.4,6.2,3.1-7.8.7-15,.4-31,.5-46.5V222l-.3-1.4-2.8,39.3.1,2.4-.7-2.4ZM301,466.2c-35.7,15.2-75.3,25.8-116.7,31l2.6-.4c-6.2.7-12.3,1.4-18.5,1.9-10.6.9-21,1.8-32,1.6-11.1-.4-22.4-3.9-29.1-10.2-3.4-3.2-5.3-7-5.4-10.9V435.9c.1-14.7.1-18.9-.4-17.2-.9,3-1.1-13.4-1.3-24.8l-.6-36c31.3-.2,64-.3,96.6-.5,38.2-.2,78.7-.3,115.4-.5h24.5c33.7,0,65.8.4,100.7.1,4.4,0,15.4.1,18,.3,3,.2,6,.4,8.9.8,6.7,0,14.6.1,23.9.1l-7.6.2c19.5-.1,36.1-.1,52.3-.2,5.8,0,11.6,0,17.5.1l22.2.1-20.8,5.4c-9.6,2.5-19.3,5.1-29.6,8.2l-2.5,1.2c-10,3.1-20,6.4-34.9,11.5,6.7-2.5,9.5-3.5,7.6-2.8-.7-.1-4.7.9-.6-.7,3.2-1.3,16.3-5.9,25.9-8.9,10.2-3.2,14.7-4.4,17.5-5.6,1.5-.6,8.7-2.7,15.8-4.8l7.1-2-7.6.1c-3.2,0-6.5.1-9.3.1-23.1.4-15.5,1-16.9,1.5-.5.2.7.4,1.4.6,1.5,0,7.8.1,19.2.2-12.4.1-20.9.2-31.7.4l1.9-.3H500.3l-43.5,1.2c-15.4.6,18.1,1.3,44.1,1.3h49.2l-2.2-8c-15.8,4-31.2,8.7-46.5,13.7-12.4,4-24.6,8.4-37.4,13,19.5-7.3,39.5-14.2,60-20.4l-.1-.1c-6.8,2-13.7,4.1-20.3,6.3L472,380.1c-7.6,2.4-19.7,6.9-35.9,13.4-19.6,7.8-45.6,19.6-59.4,25.4-5.2,2.2-1.3-.1-1.5-.3-15.4,7.3-30.2,14.6-51,26.2,7.7-5.3,14.5-9.8,22.2-14.7L336,435.3c30.3-15.9,14.2-8.9,39.5-21.5-10.1,4.6-16.9,7.8-25,11.7,7.8-4.3,17.3-9.1,12.1-7.2-4,1.5,11-6.4,15.9-9.1,1.9-1.1-2.5.7-1.5,0a50.78,50.78,0,0,1,8.3-4.6c13.6-6.1,19.3-9.6,41.7-18.1l10.5-4.1c33.9-13.4,67.3-25,104.6-34.6l7.5,27.5H542c-25.9,0-55.5-.1-83.2-.1l-98,.3H246.9c-7.3,0-15.8,0-21.7.1-18.4.2-39.5.3-59.6.2-10.1-.1-19.9-.1-29-.2-2.3,0-4.5,0-6.7-.1h-4l-.5-.2c-.2,0-.3-.1-.5-.1a1.85,1.85,0,0,0-.2.7l-.2,15.8.3-1.2c.4,4,.9,6.2,1.1,12.5.2,12.7.2,26.1-.3,39.2l-.4,17.5-.2,19.8-.6-.3-.6-2v2.5a1.85,1.85,0,0,0,.2.7,4.19,4.19,0,0,0,.9,1.4,13.78,13.78,0,0,0,3.3,2.3c1.3.5,2.5,1.1,3.7,1.7.4.5-3.1-.1-3.9,0a30,30,0,0,0,9.1,1.7,20.83,20.83,0,0,0,2.5,0l3.5-.1,7.4-.4c9.9-.6,19.7-1.6,29.2-2.8a482.45,482.45,0,0,0,84.5-18.6c5.5-1.5,18.3-6.6,26.4-10,7.9-3.5,14.7-6.3,21.5-9.9-3.7,2.1-7.2,4.3-11.9,6.5,15-6.8,22.6-10.7,9.8-3.1-3,1.7.7.1.2.6s-2.3,2-7.7,4.6l-11.1,5.4c-5,2-11.2,4.7-19.2,7.5-16.5,6.2-37,12.3-30.4,11.2,9.5-2-16,7-53,12.2-10.2,1.4-20.5,2.6-30.9,3.3-5.2.4-10.4.7-15.5.9a57.11,57.11,0,0,1-13.7-.9,58,58,0,0,1-9.5-2.8,20.31,20.31,0,0,1-7.4-5.1c-2.7-2.8-3.1-5.9-3-11.2-.2-9.7-.4-20.4-.3-28.2l.2-8.4c.7-10.3.7-10.1.1-25.2l-2,22.8a4.9,4.9,0,0,1-.9,2.8V409.3l.2-9.7-.1-37q60.15-.15,120.2-.2c2.5,0,4.9,0,7.3-.1a1.7,1.7,0,0,0-.7-.1q-63.75,0-127.5-.1v9l.1,29.4c0,19.6-.3,25.2-1.4,22.6l.5,28,.2,18c.3,7-1.6,14.3,4.7,19.7,5.6,5.4,14.8,8.4,24,9.2s18.8-.4,27.9-1.1,18.2-2,27.2-3.3c14.2-2.2,28.3-4.8,42.1-7.9A386.65,386.65,0,0,0,292.3,466c7.7-3.1,13.7-6.2,19-8.5l11.7-5.9c5.7-2.8,7.4-3.4,5-1.7-3.5,2.5-5.1,4-7.9,6.3C306.4,463.2,296.8,467.3,301,466.2ZM524.2,356.9c-4.2,1-7.9,1.9-12.6,3.4-13.7,4.2-27.5,8.9-40.9,13.7-8,2.9-15.8,5.9-23.7,8.9l-14.1,5.4-1.6.9q42.9-17.1,88.4-30.8Zm-250.7,5.3c13,.3,41.2.3,69-.1H313.4c4.3,0,8.6-.1,21.2-.2-14.2-.1-22.4-.1-27.4-.1-12,.1-22.5.2-33.7.4Zm122.6-14.5-23.3-.6c-24.4.2-47.6.5-70.6.7l-9.2.2c-15.3.7,22,1.7,61,1.7,43,.1,86.2.1,128.8.2,17.9,0,27.5,0,31.4-.4,9-.7,17.4-1.5,24.1-2.2,1.1-.1-5.5-.3-11.1-.4-28.4-.5-61.3-.2-92.3-.2-23.7,0-26.9.2-15.5.6,3.4.1.6.3.7.5C411.9,347.7,400.8,347.7,396.1,347.7ZM95.7,413.8V355.1l47.8-.3c30.8-.2,62.8-.3,97.6-.5,2.7-.1,8.5-.4,11.9-.6,1.5-.1-.3-.3-3.5-.4-10.1-.3-28.6-.6-31-1-4.8-.7-32-.5-50.6-.6-15.8-.1-24.8,0-31,.4l-5.5.3-7.5.2c-7.4.1-15.8.3-24.8.5l-6.4.1.1,23c-.8,20.5-.2,41-.2,57.7l1.6-10.6Zm302.2,16.5c-5,2.2-11.9,5.7-15.5,7.6-11.4,5.9-14.1,7.9-10.5,6.6s13.6-5.9,28.7-12.6c31.9-14.1,67-28.6,102.3-40.5,9.3-3.2,18.9-6.3,28.5-9.2l3.1-1.1q-46.2,13.05-89.7,29.7l-5.2,2.2,4.9-2.5c-17,6.7-31.9,13.1-46.6,19.8ZM298.2,58.6a434.09,434.09,0,0,0-115-30.1l2.6.2c-6-.9-12-1.7-18.1-2.3-10.3-.9-21-1.8-31-1.6-9.8.4-19.7,3.5-25.3,8.8a12.53,12.53,0,0,0-4.4,9V85.9c-.1,14.7-.1,18.9.4,17.2.9-3,1.1,13.4,1.3,24.8l.6,29.6c28.2-.2,57.7-.3,87-.5,38.2-.2,78.7-.3,115.4-.5h24.5c33.7,0,65.8.4,100.7.1,4.4,0,15.4.1,18,.3,3,.2,6,.4,8.9.8,6.7,0,14.6.1,23.9.1l-7.6.2c19.5-.1,36.1-.1,52.3-.2,5.8,0,11.6,0,17.5.1l-1.5,5.5c-9.7-2.6-19.5-5.4-29.9-8.7l-3-.5c-10.1-3.1-20.2-6.5-35.3-11.8,6.9,2.3,9.8,3.2,7.8,2.6-.2-.5-3.9-2.1.5-.8l26.4,8.4c10.3,3.2,14.8,4.4,18,5.1l16.3,4.1.5-1.9c-3.2.1-6.5.1-9.3.1-23.1.4-15.5,1-16.9,1.5-.5.2.7.4,1.4.6l19.2.2c-12.4.1-20.9.2-31.7.4l1.9-.3H500.1l-43.5,1.2c-15.4.6,18.1,1.3,44.1,1.3,16.2,0,32.6,0,49.2.1H583l-30.9-8c-15.3-4-30.6-8.6-45.5-13.5-12.2-4-24.2-8.2-36.7-13,19.4,7.1,39.1,13.8,59.3,19.7v-.1c-6.6-2.1-13.3-4.1-19.8-6.3-13-4.2-22.4-7.6-30.1-10.7l-35-13.6c-19.4-7.6-45.4-18.8-58-25.4-4.7-2.5-.3-.8,0-1.1-15-7.1-29.6-14.3-49.6-25.5,8.9,4,16.7,7.3,25.4,10.9l-9.6-5.1c29.6,15,15.7,6.8,40.6,18.4-9.6-4.7-15.9-7.8-23.5-11.8,7.9,3.7,17.5,7.9,13.3,5.4-3.2-2,12,4.8,17.4,6.6,2.1.8-1.7-1.3-.5-.9a59.75,59.75,0,0,1,9,3.3c13.1,5.7,19.7,7.8,40.4,16.8,1.8.8,7,2.8,10,4,32.7,12.4,64.8,23.7,98.5,32.7l104.3,28L549.8,175h-7.6c-25.9,0-55.5-.1-83.2-.1-32.8.1-65.2.2-98,.2H247.1c-7.3,0-15.8,0-21.7.1-18.4.2-39.5.3-59.6.2-25.2-.2-49.2-.4-67.6-.5l-14.6-.1.4-44.4-.3,1.2c-.4-4-.9-6.2-1.1-12.6-.1-12.6-.1-26,.4-39.2l.4-17.5.1-10.5V46.4a53.51,53.51,0,0,1,.4-6.9,19.53,19.53,0,0,0,.3,3.4l.6,2V43l.2-3a20.28,20.28,0,0,1,1.7-5.8,27.92,27.92,0,0,1,6.4-8.8,45.51,45.51,0,0,1,14.1-9c8.1-3.3,11.9-3.6,12.7-3.7,1.6-.2-7.2,2.7-8.4,3.7a78.34,78.34,0,0,1,23-4.6,54.68,54.68,0,0,1,5.7-.1l4.6.1,8.6.4q16.5.9,32.7,3c33.1,4.1,67.2,12,93,21.5,5.9,1.9,20.4,7.3,29.3,11.2,8.1,3.6,15.9,7.5,23.3,11.6-4.4-2.1-8.6-4.3-14-6.4,16.1,8.2,23.5,13.1,8.3,5.7-3.5-1.7.1.5-.8.3-1.2-.3-3.4-1.3-9.7-3.8L303.1,50c-5.5-2-12.2-4.8-20.8-7.8-17.9-6.5-40.8-10.9-34.4-8.8,9,3.5-18.3-4.5-56.5-9.9-10.6-1.5-21.3-2.7-32.1-3.5-5.4-.4-10.8-.7-16.3-.9a75.52,75.52,0,0,0-17.8,1.3A44.91,44.91,0,0,0,112.6,25a30.58,30.58,0,0,0-9.7,7.8,16.1,16.1,0,0,0-3.4,7.1,47,47,0,0,0-.2,7.5c.2,9.7.4,20.4.3,28.2L99.4,84c-.5,10.2-.5,10,.2,25l2-22.8a4.9,4.9,0,0,1,.9-2.8v29.2l-.2,9.7.1,39.7q62.1-.15,124.2-.2l7.3-.1a1.7,1.7,0,0,0-.7-.1q-65,0-130.1-.1V151.4l-.1-30c0-19.6.3-25.2,1.4-22.7l-.5-28-.2-18V42.4a14.42,14.42,0,0,1,4.7-9.9c5.8-5.8,15.5-9.1,25.2-10,9.9-.7,19.2.1,28.5.7s18.4,1.7,27.5,2.8c14.4,2,28.6,4.6,42.6,7.7A414,414,0,0,1,295,53.3c7.8,3.1,14,6.2,19.3,8.5,5.1,2.6,8.9,4.7,11.7,6.2,5.6,3.1,6.7,4,3.6,2.9-4.4-1.7-7.1-2.4-11-3.7C305,60.3,294.9,56.6,298.2,58.6Zm238.2,87.2-11.5-3.9c-13-4-26.3-8.5-39.3-13.1-7.8-2.7-15.4-5.5-23-8.4L449.1,115l-1.9-.5c27.4,11.2,55.7,21.2,84.8,30.2Zm-262.9,16c13,.3,41.2.3,69-.1H313.4c4.3,0,8.6-.1,21.2-.2-14.2-.1-22.4-.1-27.4-.1-12,.2-22.5.3-33.7.4Zm122.6-14.4-23.3-.6c-24.4.2-47.6.4-70.6.7l-9.2.2c-15.3.7,22,1.7,61,1.7,43,.1,86.2.1,128.8.2,17.9.1,27.5,0,31.4-.4,9-.7,17.4-1.5,24.1-2.2,1.1-.1-5.5-.3-11.1-.4-28.4-.5-61.3-.2-92.3-.2-23.7,0-26.9.2-15.5.6,3.4.1.6.3.7.5-8.2-.1-19.3-.1-24-.1ZM113,108v47l30.5-.3c30.8-.2,62.8-.3,97.6-.5,2.7-.1,8.5-.4,11.9-.6,1.5-.1-.3-.3-3.5-.4-10.1-.3-28.6-.6-31-1-4.8-.7-32-.5-50.6-.6-15.8-.1-24.8.1-31,.4l-11.4.5-7.4.5a17.22,17.22,0,0,0-2,.1c-.1-2.1-.2-5.6-.1-7.2.8-20.5.2-41,.2-57.7l-1.6,10.7Zm264.8,3.3-16.5-7.6c-12.4-5.7-16.1-7.1-13.1-5.1s13,7.5,28.3,14.9c32.6,15.7,69.6,30.3,106.5,43,9.8,3.4,20,6.7,30.3,9.8l3.5.9q-47.25-15.45-91.6-34.6l-5.6-2.2,5.8,1.9c-17.1-7.1-32.3-13.8-47.6-21ZM101.7,322.8l-.3-126.1.1,2.7.3-18.7V159.1H288.9c32.5.1,41.7.1,38.2-.3-6.6-.6,29.6-.7,54.9-.9,33.3-.2,67.9-.3,103.1-.5,17.6-.1,35.3-.1,53.1-.2h13.4c4.7.1,9.4.4,14,.9a243.8,243.8,0,0,1,27,3.9,280.28,280.28,0,0,1,78.5,27.9c22.6,12.4,42.1,27.2,57.7,43.7,16.2,15.2,17.4,35.4,3.1,51.5-7.3,7.2-13.8,14.4-22.1,20.9-16.2,13.7-35.4,25.6-56.9,35.4-3,1.2-7.8,3.5-12.7,5.2l-11.3,3.9c-4.2,1.2-8.6,2.3-12.9,3.2a277.47,277.47,0,0,1-34.7,7.6c3.1-.6,5.7-.9,11.1-2.2-14.3,2.8-27.6,4.7-41.3,5H513.8l-74.4-.3-4.5.4c-16.5,0-33.3,0-58.5-.1,11.4-.1,16.1-.2,12.9-.1-.8-.3-7.3-.6-.1-.8,5.7-.2,27.7-.3,43.5-.3,16.9,0,24.1,0,28.9-.3,3.6-.2,25.8-.4,39.8-.5,34.4-.4,23.1-1,25.3-1.5.8-.2-1.1-.4-2-.6-2.1,0-11.6-.1-28.6-.2,18.5-.1,31.3-.2,47.4-.4l-2.8.3h12.2c4,0,7.4-.4,8.8-.5a263.13,263.13,0,0,0,60.4-13.7c9.7-3.8,3.9-1.7-9.2,1.9s-33.8,8-52.4,9.4c-5.9.4-11.8.6-17.7.5H412.6c-20.4,0-40.8-.1-62.4-.1l99.5-.2v-.1c-11,0-22.1,0-33-.1-21.7,0-37.8,0-51.3-.3-12.4-.3-32.8-.3-60.8-.3-33.7.1-80.1.3-104.2-.3-9-.2-1.5-.6-1.5-.9H104.5l45.4-2.1c-.4,0-9.7-.1-18.9-.1,56.3-.2,28.3-1.1,74.4-1.5l-44.7-.3c14.7-.3,32.1-.5,23.6-1-6.7-.4,21.1-.8,30.3-1.3,3.7-.2-3.8-.4-1.8-.6a135.61,135.61,0,0,1,15.6-.6c23.8-.1,35-.8,72.5-.3h17.7c61.3-.3,119.6-.2,180.5.1,9.7,0,19.7.1,29.9.1s21.5.4,28.9-.3a242.29,242.29,0,0,0,53.7-10.7,226.17,226.17,0,0,0,54.6-25.2,218.28,218.28,0,0,0,42-35.2c4.9-5.5,6.9-12,5.7-18.4a21.49,21.49,0,0,0-4.2-9.1c-.5-.7-1.2-1.4-1.7-2.1s-1.8-1.8-2.6-2.7l-5.5-5.5c-14.7-14.5-32.8-27.3-53.7-37.8-4.1-2.1-8.3-4.1-12.7-5.9-3.9-1.7-8-3.3-12.1-4.7a260.1,260.1,0,0,0-36.2-9.9c-12.9-2.5-26.5-4.4-38.5-4.2-30.1-.1-58.7-.2-80.6-.5-18.3-.1-52-.2-78.7-.4l2.7.2c-8.9.2-13.7.6-27.8.7-28,.2-57.8.1-86.8-.2l-86-.4,8.7-.8c-89.4-.1-53.4-1-49.6-1.8-7.6,0-15,0-22.2.1-1.6,0-3.1,0-4.7.1l.1,23.7c0,32.2.1,66.5-.7,94.6v32.2l-.5,27.7-.7-16.2c-.5,19.3-1.1,29.2-2,11.2-.2-4.1-.5.5-.8-.3-.7-2.3-1.5-10.4-1.7-48.2-.1-19.7-1.7-42.8-2.5-35.9-1.1,10.1-2.2-19-2.1-57.6V165.3h25.8c6.9,0,14.1-.2,18.5-.3,15.9-.4,76.7-.9,111-.8,6.7,0,15.2.1,18.6.1,22.8.5,22.5.5,55.8.1-17.7-.5-35.5-1-50.4-1.4a33.6,33.6,0,0,1-6.3-.6h64.6c7.4.1,14.6.1,21.5.2l133.7-.1H537c5.5,0,11.2-.1,16.6,0s10.9.7,16.3,1.3A276.3,276.3,0,0,1,632,178.7c3.3,1.2,6.5,2.2,9.4,3.6a5.58,5.58,0,0,0-.8-.5,290.58,290.58,0,0,0-48.2-14.6c-16.9-3.5-34.3-5.7-52.1-5.1q-53.4,0-106.7-.1-32.7,0-65.7.1c-43.3,0-55.7-.2-50.1-.9-24.1.1-42.7.2-61.9.4-12.9,0-26.4.1-39.9.1-39,.1-75.4.3-110.2.4l.6,40.7.2,44.2.3,69.4c.2,36.3-.2,50.4-1.2,43.5-.8-5.1-1.6-7.8-2.5-12.1C102.9,329.8,102.5,318.4,101.7,322.8Zm354.5,27.9c-6.5-.1-12.1-.4-19.6-.4H369.7c-13.3,0-26.5,0-39.8.1-7.9,0-15.9-.1-23.9-.1l-3,.2,145.9.3ZM687.1,206.6A240.81,240.81,0,0,1,714.2,229c4.8,5.1,11.3,10.2,14.8,16.3a29.21,29.21,0,0,1,4.4,19.9c1.4-9.4-1.9-18.8-9.3-26.7l-.5-.6a39,39,0,0,1,5.2,6.5,31.12,31.12,0,0,1,5,13c-2-14.2-11.2-20.7-15-24.8l-7.4-7.3c-2.6-2.3-5.3-4.4-7.9-6.5s-5.1-4.3-7.9-6.3Zm22.6,113.5c5.7-3.9,9.7-7.6,13.7-10.6a124,124,0,0,0,10.1-8.7l8-8.1a61.41,61.41,0,0,0,4.2-4.7,57.74,57.74,0,0,0,3.7-5.4c8.8-14.7,8.1-31.2-2-45.4a46.11,46.11,0,0,0-4-5c-1.5-1.7-2.7-2.7-4-4l-7.8-7.6a76.4,76.4,0,0,0-9-7.8c-4-3.1-4.8-3.4-3.1-1.6s6.3,5.4,11.3,11.1l8.9,9.3a50.8,50.8,0,0,1,9.4,14.2c4.9,11.6,4.1,24-2.5,35.3a47.92,47.92,0,0,1-6.8,9.1l-7.1,7.1-7.2,7.1-8,6.7c-2.7,2.2-5.3,4.5-8.1,6.7l-8.9,6.3c-5.7,4.3-12.4,8-18.8,11.9-26.3,15.1-57.2,26.1-90.4,32.4a313.32,313.32,0,0,1-33.7,4.2c-2.3.1-4,.2-6.6.3-1.6,0-3,0-4.3.1l-6,.2c-13.5.7-25.9,1.5-36.1,2.2-1.7.1,8.1.3,16.6.4,5.3,0,10.7.1,16.2.1h15.3l2.7-.1a273.48,273.48,0,0,0,38.5-4.6A306.28,306.28,0,0,0,663.5,349c8-3.7,13.8-7,18.3-9.2l8.2-5.1c2.7-1.8,0-.4-7.1,3.6-4.3,2.4-1.1.2-1.2.1,4.9-3,10.8-6.4,15.9-9.7ZM337.8,154.9h81.5c37.8.2,62.9-.1,93.7-.3,11.5,0,23.1-.1,34.9-.1,13-.1,25.3,1.4,37.6,3.4a289.14,289.14,0,0,1,71.2,21.5c3.8,1.4,11,5,15.4,6.8,2,.9,0-.4-4-2.6-5.9-3.5-15.3-7.7-23.5-11.3l-17.2-6.7c-1.6-.7-5.3-2-10.4-3.6-5.2-1.3-11.6-3.3-19.1-4.8-14.9-3.1-32.3-5.8-48.6-5.9-23.5-.1-37,.1-46.2.4-9.7.3-24.8.7-42.3,1-7.1.1-32.8.2-39.6.1-45.3-.5-90.8-.1-127.7-.1l23.6,1.1Zm-126,218.2c-9.2.1-22.1.1-29.2.2-43.9.6-24.5,1.7,30.4,2.1,58.4.5,120.9.2,181.3.4H443l5.4-.2-153-1.9-9.4.1,9.4-.5C265.8,373.2,239,373.2,211.8,373.1Zm335.4-75.7-.3-38.3.1.8c.1-1.9.3-3.8.3-5.7V215.5a19.69,19.69,0,0,1,.4-5.4,15.68,15.68,0,0,1,4.3-6.8c1.1-1.1,1.5-1.4.8-1.2-1.1.4.2-1.2,3.4-2.9a33.35,33.35,0,0,1,12.9-3.6,91.46,91.46,0,0,1,16.6.9c5.4.7,10.8,1.7,16,2.9a158,158,0,0,1,30,10.2,145.48,145.48,0,0,1,38.6,25.5c2,1.8,4.2,4.3,6.3,6.5a33.66,33.66,0,0,1,5.9,7.4,23.46,23.46,0,0,1-1.3,25.8,21.72,21.72,0,0,1-8,7,78.09,78.09,0,0,1-6.6,6.1l1.8-2-7.5,6.9-7.6,5.8a149.07,149.07,0,0,1-17.5,10.3l-.8.9c-4.9,2.4-10.1,4.7-15.4,6.7l3.4-1.4c-.5-.2-2.4.2-.7-.7,1.5-.6,7-3.4,11-5.3,4-2.2,5.8-3.2,6.7-4l8.5-6c6.8-5.5,3.7-4.2,3.6-4.8,0-.2-.6-.1-1.1-.1a54.93,54.93,0,0,1-6.2,4c3.9-2.6,6.1-4.8,9.3-7.2l-.2.6a33.47,33.47,0,0,0,4-3.3l5.6-5.9,4.1-5.5c2.8-4.2-5.4,4.1-12.7,10a139.46,139.46,0,0,1-31.5,19.8c-2.4,1.2-4.9,2.2-7.5,3.2a70.23,70.23,0,0,1-8.1,2.8,127.36,127.36,0,0,0,24-10.6l-.1-.1c-2.5,1.4-5,2.6-7.7,3.8a84.84,84.84,0,0,1-12.8,4.9c-3.4.8-8.6,2.6-16,4.4a149,149,0,0,1-15.1,2.8,58.08,58.08,0,0,1-7.2.5,12.39,12.39,0,0,1-4.3-.5c-1.5-.5,0-.6,0-.9-5.4-.9-9.2-4.1-9.2-7.9a8.85,8.85,0,0,0,5,3.6,4.19,4.19,0,0,1-.9-1.4,4.81,4.81,0,0,0,3.6,2.1c1.1,0,2.3,0,3.4.1a6.28,6.28,0,0,1-3.2-1.4c1.2.4,2.5.5,2.3-.1,0-.4,1.6-.5,1.9-1,.1-.1-.1-.4,0-.6s.1-.2,0-.4a10.62,10.62,0,0,1,1.9-.4c5.2-.6,7.8-1.5,16.8-2.9,1.4-.3,2.8-.6,4.2-1,24.5-6.9,45.1-18.8,58.9-34.2l2.7-2.8a9,9,0,0,0,1.5-1.9,12.51,12.51,0,0,0,1.5-3.6,10,10,0,0,0-1.4-7.3,13.31,13.31,0,0,0-1.4-1.9l-3.1-3.2a77.27,77.27,0,0,0-6.4-6.4A111.56,111.56,0,0,0,632.1,233c-2.1-1.3-4.4-2.9-6.3-3.8a178.78,178.78,0,0,0-37.1-14.4,79.88,79.88,0,0,0-8.5-1.7c-1.7-.3-3.3-.4-5-.6l-3.3-.3v.2a.85.85,0,0,0,0,.7c0,.2.2-.1-.4.2-.4,4.2-.4,11.1-.6,17.6l-1.2-1.8c-.2,18.3-1.5,10.9-2.6,10.2l.3,19.7c0,9.8.1,20.2-.7,28.7-.2,1.9,0,6.7,0,9.8l-.5,8.4-.7-4.9c-.5,5.9-1.1,8.9-2,3.4-.2-1.2-.5.2-.8-.1-.7-.7-1.5-3.2-1.7-14.6-.1-6-1.7-13-2.5-10.9-1.1,3.1-2.2-5.8-2.1-17.5V241.8a16.52,16.52,0,0,0-.5-3.8c-.6-3.3-1.3-15.7-1.1-22.7v-2.1a12.27,12.27,0,0,1,.2-1.3,14.15,14.15,0,0,1,2.1-3.5,15,15,0,0,1,4.2-4.1,15.64,15.64,0,0,0-8,6.5c-.5,1-.8.7-1.1,1,.6-4.1,4-7.7,9.1-9.9a20.21,20.21,0,0,1,5.5-1.4c5.8-1.1,12.6,0,19.1.8a162.28,162.28,0,0,1,18.9,4.1,145.48,145.48,0,0,1,33.9,14.1c.9.4,1.7,1,2.5,1.4,0-.1,0-.2-.1-.2a150,150,0,0,0-56-20c-6.4-.8-13.1-1.8-19-.6a25.47,25.47,0,0,0-10.3,4.5c-1.5,1.1-2,1.4-2.1.6-4,4.3-3.1,8.4-3,12.2l.2,8.2c.1,12.8.6,24.2,1.1,35.5.2,3.8.1,8.9.2,13.4l.3,21.1c.2,11-.2,15.3-1.2,13.2a21.88,21.88,0,0,0-2.5-3.7C548.4,299.5,548,296,547.2,297.4Zm80.5-.8c-1.5.6-3,1.2-4.4,1.9a144.29,144.29,0,0,1-15,6.5c-3.1,1.1-6.2,2.2-9.5,3.1a56.34,56.34,0,0,1-5.9,1.4l-.7.4a137.86,137.86,0,0,0,34.1-12.4Zm25.6-67.4c3.7,3.1,11.3,9.8,18.3,16.8l-6.9-7.2-.1-.2,5.3,5.3c-3.3-3.7-5.2-5.9-6.7-7A86.72,86.72,0,0,0,653.3,229.2ZM699.5,261a31,31,0,0,0-1-10.5,37.2,37.2,0,0,0-4.4-7.7,24.61,24.61,0,0,0-2.9-3.4l-2.5-2.5q-4.8-5-10.2-9.6c-1.2-1-2.5-2-3-2.4-2.8-1.8-1.5-.1,1.8,3.4a82.74,82.74,0,0,1,5.9,6.5l3.5,3.9,1.9,2,2.2,2.7c6,8.4,7.5,18,4.1,27a31.13,31.13,0,0,1-3.4,6.5,33.57,33.57,0,0,1-4.6,5.5c-3,3-5.6,6-8.8,8.9-5.4,4.8-8.2,7.4-9.3,8.5-2.2,2.8-4.2,5.4-5.8,7.6-.2.4,2.3-1.1,4.3-2.5A112.68,112.68,0,0,0,682.2,293c2.4-2.1,4.3-4.5,6.5-6.8l3.1-3.3a37.26,37.26,0,0,0,3.5-4.6,26.06,26.06,0,0,0,4.1-9.2c.1-1.1-.3-.1-1.5,2.3-.8,1.5-.6.2-.8.2A26.4,26.4,0,0,0,699.5,261ZM551.7,197.4a37.15,37.15,0,0,1,15.3-4.7,64.53,64.53,0,0,1,15.2.6,201.33,201.33,0,0,1,29.4,5.9,159.28,159.28,0,0,1,39.5,17.4c1.1.5,3.4,1.6,4.8,2.2.7.3.2-.3-.8-1.1-3.1-2.6-9.6-6.9-10.4-7.6-1.1-1.6-12.1-7.1-20.3-10.1a71.05,71.05,0,0,0-14.2-4.3c-3.2-.5-8.1-1.5-13.8-2.3-2.3-.4-10.8-1.7-13.1-2a103.65,103.65,0,0,0-12.5-1.1,46.27,46.27,0,0,0-15,2.5c-8.5,3-14.7,8.4-17,14.7a19.55,19.55,0,0,1,5.7-6.2,29.32,29.32,0,0,1,7.2-3.9Zm17.5,138a62.88,62.88,0,0,1-15.7-2.6,67.58,67.58,0,0,1-10.3-4.3c-1.6-.8-1.8-.7-.8.3a29.82,29.82,0,0,0,8,4.8,55,55,0,0,0,19.3,4.2c3.4.1,6.8,0,10.2-.2,2.8-.2,5.6-.5,8.3-.9,5.4-.7,10.8-1.6,16-2.8a195.22,195.22,0,0,0,29.5-9.3,152,152,0,0,0,14.1-6.6l1.3-.9a181.73,181.73,0,0,1-48.4,15.5l-3.1.8c.8-.3,1.6-.6,3-1.1q-7.2,1.5-14.7,2.4c-2.4.3-4.9.5-7.4.7-3.2.1-6.3.2-9.3,0ZM176,156.6l-.3-13.8.1.3a15.17,15.17,0,0,0,.3-2.1V125.2c.1-2.4.1-3.1-.4-2.8-.9.5-1.1-2.2-1.3-4.1-.7-4.9-1-10.2-1.3-15.5-.3-4.2-.3-8.7-.8-12.7a24.3,24.3,0,0,1,0-2.7c0-3.7.5-7.3.2-11.1a4.77,4.77,0,0,1,.4-2,4,4,0,0,1,1.2-1l.2-2.6.4.8c-.1-2.2-.3-4-.3-5.8a54.79,54.79,0,0,1,.4-5.5l-.6-.3.1-4.3.2,1c.5-.1.9-.5,1.2,0a11.85,11.85,0,0,1,.5,3.2c0,1.2,0,1.8.4,2.1a10.48,10.48,0,0,1,.8,2.9c.6,2.5,1.5,1.7,2.3,1.9.3.1.6-.1.9-.2l.4-2.1.5,3.5-.5-.2v1.6c.6,1.7,1.1,3.5,1.7,4.8.8,1.7,1.9-2,2-4.9.1-3.6,0-7.3.1-11a36.18,36.18,0,0,1,.2-4.6l.3,7.3h.2c0-.8.1-1.6.1-2.4a10,10,0,0,1,.5-3.8,11.49,11.49,0,0,0,.4-4.5c-.1-2.5-.5-5.9.4-7.7.3-.7.9-.1,1.3-.1v-7l3.2,3.3.2-1.4c.3,4.2,1.7,2.1,2.2,5.5l.5-3.3c.4,1.1.7,2.4,1.5,1.7s1.2,1.6,1.9,2.2c.3.3.6-.3.9-.1a1.68,1.68,0,0,1,1,1.2c.1,1.8,1.2,2.6.5,5.3a2.85,2.85,0,0,0,0,1.3,73.88,73.88,0,0,1-.2,13.3c-.3,2.8-.2,6.1-.2,9.2,0,3.6.3,7.2.4,10.8V97a18.48,18.48,0,0,0,.1,2.4,35,35,0,0,1-.4,12.5,31.3,31.3,0,0,0-.5,5.8l.3-.2a5.29,5.29,0,0,1,1.1,2.1,17.27,17.27,0,0,1-.3,6.4,48.19,48.19,0,0,0-.6,6.4l-1.2-.6c-.2,6.6-1.5,3.9-2.6,3.7.1,2.5.3,4.8.3,7.1a52,52,0,0,1-.7,10.4,20.31,20.31,0,0,0,0,3.5,26.8,26.8,0,0,1-.5,3l-.7-1.8c-.5,2.1-1.1,3.2-2,1.2-.2-.4-.5.1-.8,0-.7-.3-1.5-1.1-1.7-5.3-.1-2.2-1.7-4.7-2.5-3.9-1.1,1.1-2.2-2.1-2.1-6.3v-7a2.65,2.65,0,0,0-.5-1.4,20.88,20.88,0,0,1-1.1-8.2,6.75,6.75,0,0,1,.2-1.4c.7-1.7.7-1.7.1-4.1-.7,1.3-1.4,2.6-2,3.7-.3.4-.6.3-.9.5v-4.8c0-.6.2-1.1.2-1.6-.1-6.6-.2-13.2-.4-19.8a2.2,2.2,0,0,0-.1-.8s-.2,0-.2.1c-.1,5.2-.2,10.5-.2,15.8,0,1.6.1,3.2.1,4.8,0,3.2-.3,4.1-1.4,3.7.2,1.8.4,3.2.5,4.6.1,1,.2,2,.2,3a124.65,124.65,0,0,0,1.1,12.8c.2,1.4.1,3.2.2,4.8.1,2.5.1,5.1.3,7.6.2,4-.2,5.5-1.2,4.8a19.65,19.65,0,0,0-2.5-1.3C177.2,157.3,176.7,156.1,176,156.6Zm18-95a4.71,4.71,0,0,0,.6-1.5V55.2c0-1-.1-2-.1-2.9,0-.6.1-1.2.1-1.8l-.3-.2L193.8,61ZM180.2,94.4a17.73,17.73,0,0,0-.2-7.6V90l-.2-2.3a22,22,0,0,0-.2,3c.1,1.2.4,2.4.6,3.7ZM158.8,80.8a13.38,13.38,0,0,1-.9,2.6l1,7.8a1.93,1.93,0,0,0,.3,1c1.1,1.7,2.5-2.4,2.5-6.7,0-4.7.1-9.5.3-14.2.1-2,0-3-.5-3.5q-1.5-1.35-3.3-2.7c-.2-.1-.5.6-.6,1.2-.7,3.1-.3,6.8-.2,10.2,0,2.6.3,3,.9,1.7.2-.4.5-.1.7-.1C158.8,79.1,158.9,80.3,158.8,80.8ZM170,121.6c0-1.8-.2-4.1,0-6a32,32,0,0,0-.4-6.9c-.3-3.4-.5-6.9-.8-10.8a11.32,11.32,0,0,0-1-1.3c-.2-.2-.4,0-.6.4-.5,1.1-.9,3.2-1.5,3.4-1.1.5-.7,3.5-.9,5.6a5.09,5.09,0,0,0,.6,3.4,9.87,9.87,0,0,1,1.5,3.1,9.68,9.68,0,0,1,.2,2.9c-.8,3.3-.2,6.7-.2,9.4.6-.6,1.1-1.2,1.6-1.7A21.21,21.21,0,0,1,170,121.6Zm-9.2-78.1a8.92,8.92,0,0,0-.3-2.2c-.9-3.2-2.5-1.8-3.1,2.2-.7,4.3-.4,8.9-.5,13.4v3.6l.3.4L160,49.6l-.1-.7.7.7c0-2.1.1-4.1.2-6.1ZM176,482.1l-.3-13.8.1.3a16.2,16.2,0,0,0,.3-2V450.8c.1-2.4.1-3.1-.4-2.8-.9.5-1.1-2.2-1.3-4-.7-4.9-1-10.2-1.3-15.5-.3-4.2-.3-8.7-.8-12.7a24.3,24.3,0,0,1,0-2.7c0-3.7.5-7.3.2-11.1a4.77,4.77,0,0,1,.4-2,4,4,0,0,1,1.2-1l.2-2.6.4.8c-.1-2.2-.3-4-.3-5.8a54.79,54.79,0,0,1,.4-5.5l-.6-.3.1-4.3.2,1c.5-.1.9-.5,1.2,0a11.85,11.85,0,0,1,.5,3.2c0,1.2,0,1.8.4,2.1a10.48,10.48,0,0,1,.8,2.9c.6,2.5,1.5,1.7,2.3,1.9.3.1.6-.1.9-.1l.4-2.1.5,3.5-.5-.2v1.6c.6,1.7,1.1,3.5,1.7,4.8.8,1.7,1.9-2,2-4.9.1-3.6,0-7.3.1-11a36.18,36.18,0,0,1,.2-4.6l.3,7.4h.2c0-.8.1-1.6.1-2.4a10,10,0,0,1,.5-3.8,11.49,11.49,0,0,0,.4-4.5c-.1-2.5-.5-5.9.4-7.7.3-.7.9-.1,1.3-.1v-7l3.2,3.4.2-1.4c.3,4.2,1.7,2.1,2.2,5.5l.5-3.3c.4,1.1.7,2.4,1.5,1.7s1.2,1.6,1.9,2.2c.3.3.6-.3.9-.1a1.74,1.74,0,0,1,1,1.1c.1,1.8,1.2,2.6.5,5.4a2.85,2.85,0,0,0,0,1.3,73.88,73.88,0,0,1-.2,13.3c-.3,2.9-.2,6.1-.2,9.2,0,3.6.3,7.2.4,10.8v12.5a18.48,18.48,0,0,0,.1,2.4,35,35,0,0,1-.4,12.5,32.13,32.13,0,0,0-.5,5.8l.3-.2a5.64,5.64,0,0,1,1.1,2,17.27,17.27,0,0,1-.3,6.4,48.19,48.19,0,0,0-.6,6.4l-1.2-.6c-.2,6.6-1.5,3.9-2.6,3.7.1,2.5.3,4.8.3,7.1a52,52,0,0,1-.7,10.4,20.31,20.31,0,0,0,0,3.5,26.8,26.8,0,0,1-.5,3l-.7-1.8c-.5,2.1-1.1,3.2-2,1.2-.2-.5-.5.1-.8,0-.7-.3-1.5-1.1-1.7-5.3-.1-2.2-1.7-4.7-2.5-3.9-1.1,1.1-2.2-2.1-2.1-6.3v-7a2.65,2.65,0,0,0-.5-1.4,20.88,20.88,0,0,1-1.1-8.2,6.75,6.75,0,0,1,.2-1.4c.7-1.7.7-1.7.1-4.1-.7,1.3-1.4,2.6-2,3.7-.3.4-.6.3-.9.5v-4.8c0-.5.2-1.1.2-1.6-.1-6.6-.2-13.2-.4-19.8a2.2,2.2,0,0,0-.1-.8s-.2,0-.2.1c-.1,5.2-.2,10.5-.2,15.8,0,1.6.1,3.2.1,4.9,0,3.2-.3,4.1-1.4,3.7.2,1.8.4,3.2.5,4.6.1,1,.2,2,.2,3a124.65,124.65,0,0,0,1.1,12.8c.2,1.4.1,3.2.2,4.8.1,2.5.1,5.1.3,7.6.2,4-.2,5.5-1.2,4.8a19.65,19.65,0,0,0-2.5-1.3C177.2,482.9,176.7,481.6,176,482.1Zm18-95a4.71,4.71,0,0,0,.6-1.5v-4.9c0-1-.1-2-.1-2.9,0-.6.1-1.2.1-1.8l-.3-.2-.5,10.8Zm-13.8,32.8a17.73,17.73,0,0,0-.2-7.6v3.2l-.2-2.3a22,22,0,0,0-.2,3c.1,1.3.4,2.4.6,3.7Zm-21.4-13.5a13.38,13.38,0,0,1-.9,2.6l1,7.8a1.93,1.93,0,0,0,.3,1c1.1,1.7,2.5-2.4,2.5-6.7,0-4.7.1-9.5.3-14.2.1-2,0-3-.5-3.5q-1.5-1.35-3.3-2.7c-.2-.1-.5.6-.6,1.2-.7,3.1-.3,6.8-.2,10.2,0,2.6.3,3,.9,1.7.2-.4.5-.1.7-.1-.2.9-.1,2.1-.2,2.7ZM170,447.1c0-1.8-.2-4.1,0-6a32,32,0,0,0-.4-6.9c-.3-3.4-.5-6.9-.8-10.8a11.32,11.32,0,0,0-1-1.3c-.2-.2-.4,0-.6.4-.5,1.1-.9,3.2-1.5,3.4-1.1.5-.7,3.5-.9,5.6a5.09,5.09,0,0,0,.6,3.4,9.87,9.87,0,0,1,1.5,3.1,9.68,9.68,0,0,1,.2,2.9c-.8,3.3-.2,6.7-.2,9.4.6-.6,1.1-1.2,1.6-1.7a21.21,21.21,0,0,1,1.5-1.5ZM160.8,369a8.92,8.92,0,0,0-.3-2.2c-.9-3.2-2.5-1.8-3.1,2.2-.7,4.3-.4,8.9-.5,13.4V386l.3.4,2.8-11.3-.1-.7.7.7C160.6,373,160.7,371,160.8,369Z" transform="translate(3.35 -11.66)"/></svg>